# xmcd
#
# Track frame offsets:
#	182
#	12732
#	26400
#	38915
#	50835
#	63430
#	75085
#	88772
#	101232
#	112440
#	126565
#	139132
#	151390
#	163682
#	177725
#	190485
#	203277
#	222982
#
# Disc length: 3176 seconds
#
# Revision: 7
# Processed by: cddbd v1.5.2PL0 Copyright (c) Steve Scherf et al.
# Submitted via: audiograbber 1.83.01
#
DISCID=0e0c6612
DTITLE=Various Artist - Songs Of The West, Volume 2 - Silver Screen Cowboys
DYEAR=1993
DGENRE=Country
TTITLE0=Sons Of The Pioneers - I'm An Old Cowhand (From The Rio Grande)
TTITLE1=Roy Rogers with Morton Scott and His Orchestra - Rock Me To Sleep In My S
TTITLE1=addle
TTITLE2=Tex Ritter and His Texans - Singin' In The Saddle
TTITLE3=Sons Of The Pioneers - A Melody From The Sky
TTITLE4=Gene Autry and Jimmy Long - That Silver-Haired Daddy Of Mine
TTITLE5=Bob Wills and His Texas Playboys - New San Antonio Rose
TTITLE6=Roy Rogers with The Whippoorwills and Orchestra - California Rose
TTITLE7=Jimmy Wakely - One Has My Name (The Other Has My Heart)
TTITLE8=Tex Ritter and His Texans - When It's Lamp Lightin' Time In The Valley
TTITLE9=Foy Willing and The Riders Of The Purple Sage - Twilight On The Trail
TTITLE10=Walter Brennan with The Johnny Mann Singers - Old Rivers
TTITLE11=Gene Autry - Sioux City Sue
TTITLE12=Jimmy Wakely - I Love You So Much It Hurts
TTITLE13=Rex Allen with The Merry Melody Singers - Don't Go Near The Indians
TTITLE14=Tex Ritter and His Texans - Jingle Jangle Jingle
TTITLE15=Gene Autry and Smiley Burnette - Ridin' Down The Canyon
TTITLE16=Slim Pickens - Desperados Waiting For A Train
TTITLE17=Rex Allen, Jr with Roy Rogers and Rex Allen Sr. - Last Of The Silver Scr
TTITLE17=een Cowboys
EXTD=
EXTT0=
EXTT1=
EXTT2=
EXTT3=
EXTT4=
EXTT5=
EXTT6=
EXTT7=
EXTT8=
EXTT9=
EXTT10=
EXTT11=
EXTT12=
EXTT13=
EXTT14=
EXTT15=
EXTT16=
EXTT17=
PLAYORDER=
